<svg height="512" viewBox="0 0 64 64" width="512" xmlns="http://www.w3.org/2000/svg"><g id="Layer_4" data-name="Layer 4"><path d="m24 37a7 7 0 1 0 7 7 7.008 7.008 0 0 0 -7-7zm0 12a5 5 0 1 1 5-5 5.006 5.006 0 0 1 -5 5z"/><path d="m63 19a18 18 0 1 0 -34.962 6h-13.038a1 1 0 0 0 -.895.553l-1.723 3.447h-7.382a4 4 0 0 0 -4 4v22a4 4 0 0 0 4 4v1a3 3 0 0 0 3 3h32a3 3 0 0 0 3-3v-1a4 4 0 0 0 4-4v-18.118a18.02 18.02 0 0 0 16-17.882zm-47.382 8h13.275a17.864 17.864 0 0 0 1.163 2h-15.438zm-10.618 4h26.609a18 18 0 0 0 5.174 4h-6.478a10.938 10.938 0 0 0 -12.605 0h-14.7v-2a2 2 0 0 1 2-2zm19 22a9 9 0 1 1 9-9 9.011 9.011 0 0 1 -9 9zm-8.479-2h-12.521v-14h12.521a10.979 10.979 0 0 0 0 14zm25.479 9a1 1 0 0 1 -1 1h-32a1 1 0 0 1 -1-1v-1h34zm2-3h-38a2 2 0 0 1 -2-2v-2h14.7a10.938 10.938 0 0 0 12.61 0h14.69v2a2 2 0 0 1 -2 2zm2-6h-12.521a11 11 0 0 0 2.095-4h1.426a3 3 0 0 0 0-6h-1.426a11 11 0 0 0 -2.095-4h3.99l-.439 1.757a1 1 0 0 0 1.5 1.091l4.883-3.048a17.467 17.467 0 0 0 2.587.2zm-10.051-8h1.051a1 1 0 0 1 0 2h-1.051c.03-.33.051-.662.051-1s-.021-.67-.051-1zm10.051-8a15.992 15.992 0 0 1 -2.636-.236.993.993 0 0 0 -.694.138l-3.1 1.937.515-2.061a1 1 0 0 0 -.564-1.156 15.985 15.985 0 1 1 6.479 1.378z"/><path d="m45 7a12 12 0 1 0 12 12 12.013 12.013 0 0 0 -12-12zm0 22a10 10 0 1 1 10-10 10.011 10.011 0 0 1 -10 10z"/><path d="m46 13h-2v5h-5v2h5v5h2v-5h5v-2h-5z"/></g></svg>